HIERARCHY
ROOT Hips
{
	OFFSET 0.000000 0.000000 0.000000
	CHANNELS 6 Xposition Yposition Zposition Yrotation Xrotation Zrotation
	JOINT Spine
	{
		OFFSET 0.000000 -0.000000 1.489414
		CHANNELS 3 Yrotation Xrotation Zrotation
		JOINT Spine1
		{
			OFFSET 0.000000 -0.000001 4.064482
			CHANNELS 3 Yrotation Xrotation Zrotation
			JOINT Neck
			{
				OFFSET 0.000000 -0.000001 4.427754
				CHANNELS 3 Yrotation Xrotation Zrotation
				JOINT Head
				{
					OFFSET 0.000000 -0.363272 2.815356
					CHANNELS 3 Yrotation Xrotation Zrotation
					End Site
					{
						OFFSET 0.000000 -0.000001 3.632717
					}
				}
			}
			JOINT LeftShoulder
			{
				OFFSET 0.731535 0.096024 3.575184
				CHANNELS 3 Yrotation Xrotation Zrotation
				JOINT LeftArm
				{
					OFFSET 2.610319 0.000000 0.000000
					CHANNELS 3 Yrotation Xrotation Zrotation
					JOINT LeftForeArm
					{
						OFFSET 5.118421 0.000000 0.000000
						CHANNELS 3 Yrotation Xrotation Zrotation
						JOINT LeftHand
						{
							OFFSET 4.756909 0.000000 0.000000
							CHANNELS 3 Yrotation Xrotation Zrotation
							End Site
							{
								OFFSET 2.724539 0.000000 0.000000
							}
						}
					}
				}
			}
			JOINT RightShoulder
			{
				OFFSET -0.721442 0.096024 3.575184
				CHANNELS 3 Yrotation Xrotation Zrotation
				JOINT RightArm
				{
					OFFSET -2.610319 0.000000 0.000000
					CHANNELS 3 Yrotation Xrotation Zrotation
					JOINT RightForeArm
					{
						OFFSET -5.118422 0.000000 0.000000
						CHANNELS 3 Yrotation Xrotation Zrotation
						JOINT RightHand
						{
							OFFSET -4.756909 0.000000 0.000000
							CHANNELS 3 Yrotation Xrotation Zrotation
							End Site
							{
								OFFSET -2.724539 0.000000 0.000000
							}
						}
					}
				}
			}
		}
	}
	JOINT LeftUpLeg
	{
		OFFSET 1.816359 0.000000 0.000000
		CHANNELS 3 Yrotation Xrotation Zrotation
		JOINT LeftLeg
		{
			OFFSET 0.000000 0.000001 -7.638974
			CHANNELS 3 Yrotation Xrotation Zrotation
			JOINT LeftFoot
			{
				OFFSET 0.000000 0.000001 -8.008609
				CHANNELS 3 Yrotation Xrotation Zrotation
				JOINT LeftToeBase
				{
					OFFSET 0.000000 -2.724539 -1.180634
					CHANNELS 3 Yrotation Xrotation Zrotation
					End Site
					{
						OFFSET 0.000000 -0.726544 0.000000
					}
				}
			}
		}
	}
	JOINT RightUpLeg
	{
		OFFSET -1.816359 0.000000 0.000000
		CHANNELS 3 Yrotation Xrotation Zrotation
		JOINT RightLeg
		{
			OFFSET 0.000000 0.000001 -7.638974
			CHANNELS 3 Yrotation Xrotation Zrotation
			JOINT RightFoot
			{
				OFFSET 0.000000 0.000001 -8.008609
				CHANNELS 3 Yrotation Xrotation Zrotation
				JOINT RightToeBase
				{
					OFFSET 0.000000 -2.724539 -1.180634
					CHANNELS 3 Yrotation Xrotation Zrotation
					End Site
					{
						OFFSET 0.000000 -0.726544 0.000000
					}
				}
			}
		}
	}
}
MOTION
Frames: 9
Frame Time: 0.041667
22.311125 0.904899 16.088011 1.793750 11.835108 206.765850 -4.795969 -12.776837 -1.146412 -1.218713 19.729655 -0.793323 -5.615957 12.145062 9.069051 12.754988 3.957511 12.774137 -17.370283 -8.059838 2.229238 25.348797 4.006764 -17.517989 -10.391169 -14.483734 -18.081968 5.080642 -12.767843 -2.460035 16.610624 -3.803430 -7.239790 -11.942168 25.915030 19.976176 50.301321 -41.302649 81.135346 27.173568 1.746303 6.779079 5.778649 10.024693 -14.776329 1.815373 20.003696 -8.937729 -12.230669 -2.583897 8.454860 0.000000 0.000001 0.000000 -14.035328 -75.361630 23.515527 -76.133387 32.502572 -62.714223 -5.972892 0.471920 -26.294312 0.000001 0.000001 -0.000000 
22.271475 0.924052 16.077518 2.075400 11.463830 207.587057 -4.612277 -12.919421 -1.284687 -1.077311 19.564447 -0.808065 -5.543102 12.093279 9.079647 12.678205 4.028192 12.760283 -17.346075 -8.031814 2.229803 25.362345 4.035101 -17.600721 -10.406254 -14.564325 -18.079106 5.049540 -12.849617 -2.412759 16.628475 -3.756534 -7.332627 -12.011555 25.651248 19.891922 49.941988 -41.214488 81.578345 27.148930 1.843158 6.789462 6.032975 9.859495 -14.907856 1.872119 20.064685 -9.000407 -12.218955 -2.655110 7.963750 0.000000 0.000000 0.000000 -13.915160 -74.641386 23.095926 -74.845889 32.490810 -61.584339 -6.536169 0.590815 -25.945216 0.000001 0.000001 -0.000001 
22.230707 0.945750 16.066723 2.356863 11.138803 208.431350 -4.436026 -13.041495 -1.425431 -0.930739 19.428335 -0.823154 -5.524952 12.120447 9.021211 12.687746 3.969978 12.692461 -17.362175 -7.988490 2.194234 25.449415 3.904169 -17.700879 -10.405495 -14.532228 -18.052661 5.040632 -12.819153 -2.431632 16.608809 -3.719141 -7.394519 -12.080074 25.397288 19.748082 49.625043 -41.149827 81.965822 27.155970 1.890037 6.855352 6.305452 9.751799 -14.863156 1.792427 20.156605 -9.163302 -12.233450 -2.739607 7.392453 -0.000000 0.000002 0.000000 -13.842568 -73.892579 22.734379 -73.503320 32.523575 -60.647306 -7.108861 0.784479 -25.485681 0.000002 -0.000001 -0.000001 
22.190073 0.965605 16.053375 2.661126 10.771084 209.256068 -4.209444 -13.145643 -1.536314 -0.799547 19.268341 -0.828774 -5.510101 12.108385 8.977440 12.700832 3.931453 12.641325 -17.340585 -7.999366 2.122673 25.469381 3.783030 -17.747632 -10.366132 -14.472742 -18.040119 5.041631 -12.766653 -2.427785 16.623827 -3.715297 -7.490557 -12.181400 25.223337 19.609441 49.376646 -41.109566 82.304353 27.150721 1.963349 6.833424 6.578284 9.623100 -14.916807 1.837773 20.211103 -8.964171 -12.284861 -2.865817 6.577521 0.000000 -0.000001 0.000000 -13.866686 -73.173442 22.502646 -72.159460 32.652939 -59.594138 -7.403432 1.014489 -25.072557 0.000006 0.000000 -0.000001 
22.148018 0.986391 16.041521 2.915066 10.445975 210.117574 -4.071902 -13.270498 -1.692753 -0.615581 19.175206 -0.845116 -5.466672 12.036423 8.974825 12.640239 3.931548 12.615027 -17.356974 -7.953205 2.127852 25.481436 3.878826 -17.865314 -10.441011 -14.570709 -18.012819 5.017968 -12.858588 -2.382462 16.636246 -3.707477 -7.548477 -12.342796 24.938050 19.429008 49.025636 -41.024179 82.759394 27.231966 2.068168 6.827749 6.747634 9.592978 -14.990664 1.883472 20.221745 -9.118519 -12.418193 -3.029747 6.079813 0.000000 0.000001 -0.000001 -13.693339 -72.383777 22.079833 -70.766948 32.697266 -58.637809 -7.707162 1.241563 -24.595405 -0.000001 0.000004 -0.000002 
22.105839 1.011554 16.029015 3.159720 10.143646 211.021140 -3.840521 -13.394563 -1.874084 -0.578865 19.096557 -0.891020 -5.419118 11.982633 8.940803 12.606426 3.906575 12.558046 -17.328280 -7.958388 2.083611 25.519113 3.837337 -17.948585 -10.447799 -14.567911 -18.010801 4.973706 -12.855577 -2.388379 16.631787 -3.626677 -7.681402 -12.356463 24.779914 19.424276 48.549480 -41.186860 83.148981 26.692767 1.558596 7.240553 6.923627 9.574915 -15.120340 1.887415 20.216969 -9.159520 -12.465634 -3.168302 5.452508 -0.000000 0.000003 -0.000000 -13.577972 -71.561647 21.685232 -69.338052 32.943481 -57.540519 -8.162012 1.315561 -23.962716 0.000003 -0.000002 -0.000006 
22.062969 1.031385 16.014555 3.393115 9.791928 211.857291 -3.694589 -13.527659 -1.995560 -0.399896 19.016013 -0.896535 -5.433222 11.922343 8.902245 12.642330 3.847809 12.518406 -17.340728 -7.930234 2.038433 25.559410 3.711154 -18.034619 -10.454068 -14.529214 -18.012720 4.995333 -12.813727 -2.417783 16.624406 -3.590112 -7.765634 -12.521104 24.421374 19.277569 48.257885 -41.040568 83.552522 26.822062 1.776214 7.171624 7.138105 9.483531 -15.126057 1.892028 20.267531 -9.497783 -12.567834 -3.271569 5.094959 0.000000 -0.000001 0.000000 -13.679446 -70.788914 21.496673 -67.789935 33.192015 -56.436931 -8.505092 1.533627 -23.588548 0.000003 0.000003 -0.000002 
22.021000 1.050052 16.001390 3.613109 9.441093 212.710696 -3.524669 -13.614590 -2.132891 -0.278197 18.880829 -0.915381 -5.373470 11.882504 8.861533 12.589831 3.752041 12.441800 -17.335018 -7.938752 1.992158 25.555286 3.882128 -18.074146 -10.535769 -14.640125 -18.037628 4.946188 -12.914098 -2.355844 16.658159 -3.529395 -7.849440 -12.645757 24.237119 19.177095 46.930571 -41.364524 84.644383 25.520362 0.482915 8.434030 7.374401 9.386429 -15.288277 1.894835 20.333021 -9.586406 -12.684985 -3.364464 4.640199 0.000000 -0.000002 0.000000 -13.731970 -69.986599 21.336268 -66.215542 33.411117 -55.511140 -8.692120 1.771525 -22.909884 0.000001 -0.000000 -0.000000 
21.977173 1.068578 15.986359 3.822060 9.063321 213.547490 -3.348312 -13.751184 -2.245530 -0.147967 18.796809 -0.925308 -5.341905 11.785986 8.835004 12.539361 3.735570 12.392705 -17.345173 -7.928655 1.936550 25.606272 3.820381 -18.155833 -10.544207 -14.634616 -18.061681 4.880459 -12.904850 -2.390721 16.611937 -3.607641 -7.824404 -12.957116 23.361962 18.798267 45.786159 -40.852915 85.966325 25.646331 0.919322 8.409931 7.650231 9.290181 -15.333244 1.821862 20.390705 -9.847014 -12.775533 -3.440015 4.301509 -0.000000 0.000002 0.000001 -13.804095 -69.223223 21.245957 -64.556236 33.650655 -54.327475 -9.263591 1.976291 -22.505791 -0.000004 0.000000 0.000001 
